<?xml version="1.0" standalone="no"?>
<!DOCTYPE svg PUBLIC "-//W3C//DTD SVG 20010904//EN"
 "http://www.w3.org/TR/2001/REC-SVG-20010904/DTD/svg10.dtd">
<svg version="1.0" xmlns="http://www.w3.org/2000/svg"
 width="300.000000pt" height="300.000000pt" viewBox="0 0 300.000000 300.000000"
 preserveAspectRatio="xMidYMid meet">
<metadata>
Created by potrace 1.10, written by Peter Selinger 2001-2011
</metadata>
<g transform="translate(0.000000,300.000000) scale(0.100000,-0.100000)"
fill="#000000" stroke="none">
<path d="M620 2366 c0 -2 20 -16 44 -30 59 -35 100 -84 125 -151 21 -55 29
-155 13 -155 -19 0 -102 63 -127 95 -37 49 -54 94 -64 172 l-10 68 2 -70 c3
-71 29 -142 67 -183 48 -49 93 -83 119 -88 l29 -6 4 62 c3 69 -18 130 -70 198
-33 44 -132 109 -132 88z"/>
<path d="M882 2303 c-26 -51 -37 -125 -36 -240 0 -68 -2 -123 -6 -123 -4 0
-19 11 -34 25 -40 37 -105 66 -161 71 l-50 4 60 -15 c72 -19 134 -54 171 -97
30 -37 79 -136 71 -145 -9 -8 -107 17 -147 37 -51 26 -98 76 -130 140 -16 30
-29 50 -30 43 0 -16 32 -84 47 -101 7 -7 16 -19 20 -26 14 -23 81 -67 130 -86
26 -11 42 -20 36 -21 -7 -1 -17 -2 -22 -3 -5 0 -13 -4 -17 -8 -4 -5 22 -8 57
-8 80 0 122 -12 181 -49 43 -28 128 -121 128 -142 0 -5 -33 -9 -72 -9 -114 0
-195 45 -276 154 -12 16 -22 22 -22 15 0 -8 21 -39 47 -68 35 -40 66 -63 120
-88 40 -18 76 -33 80 -32 4 1 19 0 33 -1 15 -1 -1 -8 -38 -16 -34 -7 -74 -21
-90 -29 -15 -9 -18 -13 -7 -10 176 55 341 44 462 -33 27 -16 65 -32 86 -35
l38 -6 -36 41 c-21 22 -49 66 -64 97 -22 48 -26 69 -26 146 1 58 7 106 17 135
21 55 14 67 -8 14 -22 -51 -30 -179 -14 -243 6 -27 27 -75 45 -106 36 -59 28
-72 -23 -37 -15 10 -44 26 -65 36 -30 14 -37 21 -30 34 4 9 8 67 8 127 0 95
-3 116 -24 158 -29 59 -111 150 -150 167 -23 9 -31 21 -41 58 -25 104 -106
238 -168 278 -17 11 -8 -4 26 -42 29 -32 70 -93 90 -134 37 -74 37 -74 36
-200 0 -98 -5 -136 -20 -179 l-20 -53 -56 61 c-130 140 -166 306 -108 492 19
62 20 88 2 52z m312 -395 c81 -82 108 -139 114 -239 5 -92 -3 -145 -24 -153
-8 -3 -13 -2 -10 3 3 4 -13 23 -35 41 -56 45 -115 140 -129 206 -13 61 -4 204
12 204 5 0 38 -28 72 -62z m-232 -150 c9 -7 5 -8 -12 -4 -14 3 -33 6 -44 6
-15 0 -16 3 -7 14 7 8 9 26 6 43 -6 26 -4 25 19 -11 13 -21 30 -43 38 -48z
m160 -66 c4 -2 8 -8 8 -13 0 -5 11 -27 24 -48 14 -21 22 -42 18 -47 -4 -4 -2
-4 5 0 13 7 55 -28 45 -39 -3 -3 4 -8 16 -12 46 -12 19 -19 -38 -9 -46 7 -57
13 -49 22 7 8 7 19 1 31 -5 10 -7 23 -5 30 2 6 -4 14 -14 18 -10 3 -30 21 -45
39 -25 30 -26 36 -16 70 l12 37 15 -38 c8 -21 18 -39 23 -41z"/>
<path d="M1463 1830 c88 -103 119 -239 83 -361 -8 -29 -14 -54 -13 -55 1 -1
70 -3 152 -6 83 -2 133 -2 111 0 l-38 3 4 49 c3 31 16 66 33 92 23 35 24 39 6
24 -28 -25 -50 -70 -58 -118 l-6 -39 -91 3 c-85 3 -91 4 -88 23 2 11 6 65 9
120 5 91 3 105 -20 155 -26 58 -77 129 -105 144 -9 5 0 -10 21 -34z"/>
<path d="M2219 1843 c-15 -9 -35 -30 -44 -46 l-18 -30 -19 34 c-11 19 -16 25
-13 14 4 -11 9 -49 12 -85 6 -76 -18 -148 -68 -196 -33 -32 -37 -30 -50 23
-20 90 -6 156 53 233 31 42 34 48 14 33 -25 -17 -86 -123 -86 -148 0 -6 -15
-22 -32 -35 -36 -26 -43 -34 -75 -94 -16 -29 -23 -35 -23 -21 0 11 -7 31 -16
45 -11 19 -14 20 -10 5 15 -59 17 -96 8 -129 l-10 -36 159 0 c146 0 161 -2
179 -20 26 -26 25 -35 -12 -100 -51 -89 -179 -208 -275 -255 -72 -35 -82 -43
-82 -68 l-1 -27 -272 2 c-251 3 -273 4 -276 21 -3 14 4 17 40 18 l43 1 -50 8
c-84 12 -192 79 -287 176 -50 51 -128 154 -128 168 0 3 17 7 38 9 l37 4 -42 1
c-54 2 -55 -7 -4 -84 68 -104 173 -197 279 -249 38 -18 62 -36 62 -46 0 -37
21 -40 292 -39 232 0 264 2 275 17 7 9 10 19 8 24 -3 4 33 28 80 54 56 30 109
70 156 116 70 70 149 179 149 207 0 28 -34 70 -61 76 l-27 5 34 38 c21 22 33
45 31 55 -3 10 1 22 9 29 8 6 14 9 14 6 0 -12 51 45 66 74 19 38 12 59 -19 59
l-24 0 23 47 c15 29 23 62 23 87 l-2 41 -6 -45 c-8 -56 -22 -80 -62 -114 -44
-37 -53 -34 -45 16 8 52 34 93 72 119 35 23 20 25 -17 2z m55 -185 c-18 -59
-65 -99 -131 -111 -32 -6 -32 -6 -21 21 25 58 92 111 141 112 14 0 17 -5 11
-22z m-279 -145 c-8 -33 -64 -93 -86 -93 -15 0 -19 7 -19 36 0 61 21 111 64
156 l41 43 3 -60 c2 -32 1 -69 -3 -82z m185 10 c0 -17 -53 -72 -83 -87 -35
-16 -117 -22 -117 -8 0 15 64 75 94 88 32 14 106 19 106 7z"/>
<path d="M907 1446 c9 -15 6 -24 -13 -41 -13 -12 -24 -28 -24 -35 0 -7 10 0
22 15 l21 27 251 -5 c145 -3 226 -2 191 3 -33 4 -138 8 -234 9 -166 1 -176 2
-199 24 -21 18 -23 19 -15 3z"/>
<path d="M913 883 c63 -4 67 -5 67 -28 0 -22 -4 -25 -40 -25 -36 0 -40 -2 -40
-25 0 -22 4 -25 38 -25 34 0 38 -3 37 -22 -2 -20 -8 -23 -39 -22 l-36 1 0 -48
c0 -46 -2 -49 -25 -49 l-25 0 0 111 c0 71 -4 108 -10 104 -6 -3 -10 -50 -10
-104 0 -106 8 -125 52 -119 19 2 24 11 28 43 5 36 8 40 34 40 25 0 30 -4 33
-30 6 -51 9 -53 72 -53 63 0 85 12 79 44 -2 9 2 19 9 21 7 3 13 -9 16 -29 2
-21 4 -11 5 25 2 55 1 58 -20 55 -20 -3 -23 -10 -26 -55 -3 -49 -5 -53 -28
-53 -23 0 -24 2 -24 74 l0 74 63 0 c34 0 68 -5 75 -10 6 -6 12 -31 13 -57 1
-74 6 -80 80 -89 42 -5 91 21 88 47 -1 9 1 23 5 33 9 20 -17 73 -39 82 -28 11
-80 7 -101 -8 -17 -12 -22 -12 -39 0 -12 9 -45 14 -92 14 -40 0 -73 2 -73 5 0
3 5 14 12 25 10 15 9 22 -5 38 -14 16 -32 19 -110 19 -72 -1 -77 -1 -24 -4z
m131 -27 c9 -13 7 -20 -7 -31 -25 -18 -47 -8 -47 20 0 37 34 44 54 11z m-4
-141 c0 -73 -1 -75 -25 -75 -24 0 -25 2 -25 75 0 73 1 75 25 75 24 0 25 -2 25
-75z m319 49 c34 -44 28 -54 -34 -54 -30 0 -55 -4 -55 -9 0 -14 28 -21 59 -15
35 7 50 -12 25 -31 -30 -23 -82 -18 -109 10 -30 30 -32 64 -4 99 29 37 89 37
118 0z"/>
<path d="M1473 883 c25 -4 27 -8 27 -49 0 -42 1 -44 29 -44 23 0 31 -6 43 -37
l15 -38 18 38 c15 30 24 37 47 37 15 0 28 -2 28 -5 0 -2 -17 -36 -37 -75 -25
-45 -44 -70 -55 -70 -12 0 -30 23 -52 68 l-35 67 -1 -67 c0 -63 -1 -67 -25
-71 -23 -4 -23 -4 2 -3 24 1 28 6 31 34 4 40 12 40 37 -1 29 -47 60 -47 87 -1
20 33 22 35 29 16 17 -45 100 -68 151 -41 14 8 23 8 31 0 18 -18 55 -13 67 10
7 11 10 47 8 80 -3 59 -3 59 25 59 15 0 27 -5 27 -12 0 -9 3 -9 12 0 7 7 23
12 36 12 18 0 23 -4 18 -16 -3 -9 -6 -20 -6 -26 0 -6 -7 -8 -15 -4 -31 12 -45
-5 -45 -54 0 -45 -2 -49 -27 -53 l-28 -4 28 -2 c29 -1 32 3 42 62 4 25 11 37
22 37 9 0 14 -3 10 -6 -8 -8 21 -66 42 -81 26 -20 86 -16 112 8 l24 21 -25
-16 c-57 -37 -140 -2 -140 59 0 65 93 100 138 52 39 -41 30 -57 -34 -57 -48 0
-55 -2 -44 -14 7 -10 27 -14 55 -13 39 2 45 5 50 29 13 56 -29 91 -103 87 -26
-1 -83 -2 -126 -1 -62 2 -77 5 -68 14 7 7 12 16 12 21 0 5 -7 1 -16 -7 -12
-12 -20 -13 -35 -5 -24 12 -22 37 4 53 15 9 21 7 33 -8 8 -11 14 -15 14 -10 0
16 -22 34 -42 34 -26 0 -45 -44 -28 -65 18 -21 -5 -49 -29 -35 -10 5 -56 8
-104 8 -71 -1 -89 -4 -103 -19 -17 -19 -17 -19 -31 0 -7 11 -23 21 -35 23 -15
2 -22 11 -24 32 -5 47 -12 56 -41 55 l-28 -2 28 -4z m342 -118 c72 -71 -38
-168 -119 -104 -33 26 -35 73 -4 106 30 32 90 32 123 -2z m85 -50 c0 -73 -1
-75 -25 -75 -24 0 -25 2 -25 75 0 73 1 75 25 75 24 0 25 -2 25 -75z"/>
<path d="M1730 736 c-27 -33 18 -72 48 -42 13 13 14 20 6 34 -15 23 -38 26
-54 8z"/>
<path d="M1430 828 c0 -21 5 -38 10 -38 13 0 13 40 0 60 -7 11 -10 5 -10 -22z"/>
<path d="M1433 719 c-1 -34 1 -59 4 -55 11 10 15 85 6 101 -6 9 -9 -7 -10 -46z"/>
</g>
</svg>
